<svg xmlns="http://www.w3.org/2000/svg" version="1.1" xmlns:xlink="http://www.w3.org/1999/xlink" xmlns:svgjs="http://svgjs.dev/svgjs" width="128" height="128" viewBox="0 0 128 128"><g transform="matrix(0.8046875,0,0,0.8046875,12.333870967741937,12.333870967741937)"><svg viewBox="0 0 155 155" data-background-color="#ffffff" preserveAspectRatio="xMidYMid meet" height="128" width="128" xmlns="http://www.w3.org/2000/svg" xmlns:xlink="http://www.w3.org/1999/xlink"><g id="tight-bounds" transform="matrix(1,0,0,1,0.25,0.25)"><svg viewBox="0 0 154.5 154.5" height="154.5" width="154.5"><g><svg></svg></g><g><svg viewBox="0 0 154.5 154.5" height="154.5" width="154.5"><g transform="matrix(1,0,0,1,53.6470968,69.70419030638539)"><svg viewBox="0 0 47.2058064 15.091619387229235" height="15.091619387229235" width="47.2058064"><g><svg viewBox="0 0 47.2058064 15.091619387229235" height="15.091619387229235" width="47.2058064"><g><svg viewBox="0 0 47.2058064 15.091619387229235" height="15.091619387229235" width="47.2058064"><g id="textblocktransform"><svg viewBox="0 0 47.2058064 15.091619387229235" height="15.091619387229235" width="47.2058064" id="textblock"><g><svg viewBox="0 0 47.2058064 15.091619387229235" height="15.091619387229235" width="47.2058064"><g><svg viewBox="0 0 47.2058064 15.091619387229235" height="15.091619387229235" width="47.2058064"><g><svg xmlns="http://www.w3.org/2000/svg" xmlns:xlink="http://www.w3.org/1999/xlink" version="1.1" x="0" y="0" viewBox="30.7904922915063 111.64037547494668 339.68150770849365 108.59562452505334" enable-background="new 0 0 395.601 302.8" xml:space="preserve" height="15.091619387229235" width="47.2058064" class="icon-icon-0" data-fill-palette-color="accent" id="icon-0"><path d="M325.411 155.52c18.883-9.441 37.557 4.65 40.904 7.428 0.096 0.026 0.186 0.045 0.283 0.071 4.26 1.525-17.504-27.44-39.832-15.589 2.029-5.538-1.23-9.616-3.807-10.186-2.574-0.568-10.523 2.053-15.148 7.454 0.203-3.854-3.207-7.541-10.486-9.546-7.279-2.004-56.062-10.455-104.449-11.965-0.005 0.239-0.001 0.476-0.013 0.716-0.811 15.421-18.327 27.039-39.128 25.946-19.518-1.025-34.989-12.877-36.152-27.076-36.746 2.99-70.853 11.334-80.709 20.504-13.692 12.739-2.889 46.73 18.62 50.466 2.564 0.445 7.802 1.08 15.137 1.829-0.697-3.347-0.983-6.835-0.795-10.411 1.174-22.355 20.248-39.525 42.603-38.35 22.355 1.173 39.526 20.247 38.351 42.602-0.227 4.33-1.133 8.459-2.596 12.305 71.179 1.342 116.513 2.643 156.071-1.163-0.602-2.821-0.848-5.75-0.848-8.759C303.417 178.857 306.528 164.961 325.411 155.52zM110.485 152.151c-18.8 0-34.042 15.241-34.042 34.043 0 18.801 15.242 34.042 34.042 34.042 18.802 0 34.043-15.241 34.043-34.042C144.528 167.393 129.287 152.151 110.485 152.151zM110.485 206.236c-11.069 0-20.043-8.974-20.043-20.042 0-11.07 8.974-20.043 20.043-20.043 11.07 0 20.043 8.973 20.043 20.043C130.528 197.263 121.555 206.236 110.485 206.236zM340.054 157.81c-16.797 0-30.414 13.617-30.414 30.416 0 16.797 13.617 30.414 30.414 30.414 16.799 0 30.418-13.617 30.418-30.414C370.472 171.427 356.853 157.81 340.054 157.81zM340.056 205.739c-9.674 0-17.516-7.842-17.516-17.514 0-9.674 7.842-17.516 17.516-17.516 9.672 0 17.516 7.842 17.516 17.516C357.571 197.897 349.728 205.739 340.056 205.739zM177.073 139.868c1.671 0.57 3.488-0.322 4.059-1.993l7.51-22.004c0.569-1.671-0.322-3.487-1.993-4.059-1.67-0.569-3.487 0.323-4.058 1.993l-7.511 22.005C174.509 137.481 175.401 139.297 177.073 139.868z" fill="#000000" data-fill-palette-color="accent"></path></svg></g></svg></g></svg></g></svg></g></svg></g></svg></g></svg></g><g><path d="M0 154.5v-154.5h154.5v154.5zM153.139 153.139v-151.778h-151.778v151.778z" fill="#000000" fill-rule="nonzero" stroke="none" stroke-width="1" stroke-linecap="butt" stroke-linejoin="miter" stroke-miterlimit="10" stroke-dasharray="" stroke-dashoffset="0" font-family="none" font-weight="none" font-size="none" text-anchor="none" style="mix-blend-mode: normal" data-fill-palette-color="tertiary"></path></g></svg></g><defs></defs></svg><rect width="154.5" height="154.5" fill="none" stroke="none" visibility="hidden"></rect></g></svg></g></svg>